<svg version="1.2" xmlns="http://www.w3.org/2000/svg" viewBox="0 0 2500 2500" width="2500" height="2500">
	<title>image</title>
	<style>
		.s0 { fill: #627eea } 
		.s1 { fill: #c1ccf6 } 
		.s2 { fill: #ffffff } 
		.s3 { fill: #8198ee } 
	</style>
	<g id="Background">
		<path id="Path 0" class="s0" d="m1199.5 0.6c-3.3 0.2-14.5 0.8-25 1.4-10.5 0.6-26.4 1.8-35.5 2.6-9.1 0.8-24.2 2.3-33.5 3.4-9.3 1.1-26.2 3.4-37.5 5-11.3 1.6-29.3 4.5-40 6.5-10.7 2-28 5.4-38.5 7.6-10.5 2.2-29.6 6.7-42.5 9.9-12.9 3.2-33.1 8.6-44.8 11.9-11.6 3.4-32.6 9.9-46.5 14.5-13.8 4.6-32.6 11.2-41.7 14.6-9.1 3.4-25.7 10-37 14.7-11.3 4.6-30.2 12.8-42 18-11.8 5.3-31 14.3-42.5 20.1-11.5 5.7-27.3 13.8-35 18-7.7 4.1-21.4 11.8-30.5 17-9.1 5.2-23.5 13.7-32 19-8.5 5.2-25.4 16.1-37.5 24.2-12.1 8.1-28.8 19.6-37 25.5-8.3 6-19.5 14.2-25 18.4-5.5 4.1-17.9 13.8-27.5 21.5-9.6 7.7-23.8 19.5-31.5 26.1-7.7 6.6-20.7 18-29 25.5-8.2 7.4-23.5 21.8-33.9 32-10.3 10.2-26.6 26.8-36 37-9.4 10.2-21.9 23.9-27.7 30.5-5.8 6.6-13.9 16.1-18 21-4.1 4.9-12.2 14.9-18 22-5.7 7.1-15.7 20-22 28.5-6.4 8.5-16.5 22.3-22.4 30.5-5.9 8.3-15.8 22.6-22 32-6.2 9.4-16 24.6-21.7 34-5.8 9.4-14.8 24.4-20 33.5-5.2 9.1-14 25-19.6 35.5-5.5 10.5-14.8 28.7-20.6 40.5-5.7 11.8-14 29.6-18.4 39.5-4.3 9.9-11.5 27-16 38-4.4 11-10.7 27.2-14 36-3.3 8.8-9.4 26.4-13.7 39-4.2 12.6-10.9 34.5-15 48.5-4 14-9.5 34.7-12.3 46-2.8 11.3-6.9 29-9.1 39.5-2.2 10.5-5.6 27.5-7.5 38-1.9 10.5-4.8 28.2-6.5 39.5-1.6 11.3-3.9 28.4-5 38-1.1 9.6-2.7 24.9-3.5 34-0.8 9.1-2.1 24.8-2.8 35-0.8 11.8-1.3 39.2-1.3 76 0 37.1 0.5 64.1 1.3 76 0.7 10.2 2 25.9 2.8 35 0.8 9.1 2.4 24.4 3.5 34 1.1 9.6 3.4 26.7 5 38 1.7 11.3 4.6 29 6.5 39.5 1.9 10.5 5.1 26.4 7 35.5 1.9 9.1 5 23.3 7 31.5 1.9 8.3 6 24 8.9 35 3 11 7.9 28.3 11 38.5 3.1 10.2 8.4 26.6 11.7 36.5 3.3 9.9 8.7 25.2 12 34 3.3 8.8 9.7 25.2 14.2 36.5 4.6 11.3 12.3 29.5 17.2 40.5 4.8 11 14.8 31.9 22.1 46.5 7.2 14.6 17.7 34.6 23.1 44.5 5.4 9.9 13.2 23.6 17.2 30.5 4 6.9 11.9 19.9 17.5 29 5.7 9.1 16.3 25.5 23.7 36.5 7.4 11 17.9 26.1 23.3 33.5 5.4 7.4 14.1 19.1 19.4 26 5.2 6.9 14.9 19.3 21.5 27.5 6.7 8.3 17.5 21.3 24.1 29 6.6 7.7 18 20.8 25.4 29 7.5 8.3 25.5 27 40.1 41.6 14.6 14.6 35 34.2 45.4 43.5 10.4 9.3 26.2 23 35.1 30.4 8.9 7.4 23.1 19 31.6 25.6 8.5 6.7 23.3 17.9 32.9 25 9.6 7.1 27 19.2 38.5 27 11.5 7.8 28.9 19.1 38.5 25.1 9.6 6.1 24.5 15.1 33 20 8.5 5 22.6 12.9 31.2 17.7 8.7 4.7 25.6 13.5 37.5 19.5 12 5.9 29.2 14.2 38.3 18.4 9.1 4.1 22.6 10 30 13.2 7.4 3.2 23 9.5 34.5 14 11.5 4.6 29.1 11.2 39 14.8 9.9 3.6 26.5 9.2 37 12.5 10.5 3.3 24.6 7.7 31.5 9.7 6.9 2 20.1 5.7 29.5 8.1 9.4 2.5 25.8 6.5 36.5 9 10.7 2.5 27.1 6.1 36.5 8 9.4 1.9 26 5 37 6.9 11 1.9 29.9 4.8 42 6.4 12.1 1.7 28.5 3.7 36.5 4.5 8 0.8 22.8 2.2 33 3 10.2 0.9 27.6 2 38.8 2.6 11.1 0.5 38.2 1 60.2 1 22 0 49.1-0.5 60.3-1 11.1-0.6 28.5-1.7 38.7-2.6 10.2-0.8 25-2.2 33-3 8-0.8 24.4-2.8 36.5-4.5 12.1-1.6 31-4.5 42-6.4 11-1.9 27.7-5 37-6.9 9.3-1.9 25.8-5.5 36.5-8 10.7-2.5 27.2-6.5 36.5-9 9.3-2.4 24.9-6.7 34.5-9.6 9.6-2.8 27.4-8.4 39.5-12.5 12.1-4 29.4-10.1 38.5-13.5 9.1-3.4 25.7-9.9 37-14.4 11.3-4.6 29.5-12.3 40.5-17.2 11-4.9 31.5-14.5 45.5-21.5 14-6.9 32.7-16.6 41.5-21.4 8.8-4.8 23-12.8 31.5-17.8 8.5-4.9 23.4-13.9 33-20 9.6-6 27-17.3 38.5-25.1 11.5-7.8 28.9-19.9 38.5-27 9.6-7.1 24.4-18.3 32.9-25 8.5-6.6 22.7-18.2 31.6-25.6 8.9-7.4 24.7-21.1 35.1-30.4 10.4-9.4 30.8-28.9 45.4-43.5 14.6-14.6 32.7-33.4 40.1-41.6 7.4-8.2 18.8-21.3 25.4-29 6.6-7.7 17.4-20.7 24.1-29 6.6-8.2 16.3-20.6 21.5-27.5 5.2-6.9 14.3-19 20.1-27 5.8-8 16.2-23 23.3-33.5 7-10.5 17.3-26.4 23-35.5 5.6-9.1 13.5-22.1 17.5-29 4-6.9 10.6-18.6 14.8-26 4.1-7.4 13-24.3 19.8-37.5 6.8-13.2 16.3-32.8 21.2-43.5 4.9-10.7 11.4-25.3 14.5-32.5 3-7.2 8.3-20 11.7-28.5 3.4-8.5 8.8-22.5 12-31 3.1-8.5 8.5-23.6 11.8-33.5 3.3-9.9 8.6-26.3 11.7-36.5 3.1-10.2 8-27.5 11-38.5 2.9-11 7-27 9-35.5 2-8.5 5.1-22.7 7-31.5 1.9-8.8 5-24.5 6.9-35 1.9-10.5 4.8-28.2 6.5-39.5 1.6-11.3 4.1-30.4 5.5-42.5 1.4-12.1 3.2-31.2 4-42.5 0.9-11.3 2.1-29.3 2.6-40 0.5-10.7 1-36.6 1-57.5 0-20.9-0.5-47.5-1-59-0.6-11.5-1.9-31.8-3-45-1.1-13.2-3.1-33.5-4.5-45-1.4-11.5-4.1-31.3-6.1-44-1.9-12.7-6-35.4-9-50.5-3-15.1-7.3-35.1-9.5-44.5-2.3-9.4-6.5-26-9.4-37-3-11-7.9-28.3-11-38.5-3.1-10.2-8.4-26.6-11.7-36.5-3.3-9.9-8.8-25.2-12-34-3.3-8.8-9.7-25.2-14.2-36.5-4.6-11.3-12.3-29.5-17.2-40.5-4.9-11-14.8-31.9-22.1-46.5-7.2-14.6-17.9-35-23.6-45.5-5.7-10.5-15.9-28.2-22.7-39.5-6.8-11.3-16.8-27.5-22.3-36-5.6-8.5-14.1-21.4-19-28.5-5-7.1-14.1-20-20.2-28.5-6.2-8.5-16.4-22.1-22.6-30.1-6.3-8.1-17-21.6-23.9-30-6.9-8.4-17.7-21.2-23.9-28.3-6.3-7.2-19.2-21.4-28.7-31.6-9.4-10.2-25.7-26.8-36-37-10.4-10.2-25.7-24.6-33.9-32-8.3-7.5-21.5-19.1-29.5-26-8-6.8-22.2-18.5-31.5-26-9.3-7.4-21.5-17-27-21.1-5.5-4.2-16.8-12.4-25-18.4-8.3-5.9-25.6-17.8-38.5-26.5-12.9-8.6-32.7-21.2-44-28-11.3-6.8-29.3-17.3-40-23.2-10.7-6-31-16.7-45-23.7-14-7.1-35.2-17.2-47-22.4-11.8-5.2-30.7-13.4-42-18-11.3-4.7-27.9-11.3-37-14.7-9.1-3.4-27.9-10-41.8-14.6-13.8-4.6-34.8-11.1-46.5-14.5-11.6-3.3-31.8-8.7-44.7-11.9-12.9-3.2-32-7.7-42.5-9.9-10.5-2.2-27.8-5.6-38.5-7.6-10.7-2-28.7-4.9-40-6.5-11.3-1.6-28.2-3.9-37.5-5-9.3-1.1-22.2-2.4-28.5-3-6.3-0.6-20.7-1.8-32-2.6-13.6-1-38.7-1.6-74.5-1.8-29.7-0.2-56.7-0.2-60 0z"/>
		<path id="Path 1" class="s1" d="m1287.5 314q-1 1.2 0.2 1.9c1 0.5 1.2 73.2 1 345l-0.2 344.5c-261.2 116.7-391.9 175.1-459 205.1-67.1 30-122.7 54.7-123.5 54.8-0.8 0.1-1.7 0.7-1.9 1.2-0.2 0.6 131.2 77.4 292 170.8l292.4 169.7c0.4-465.8 0.8-601 1.3-601 0.4 0 10.2 4.3 21.7 9.4 11.5 5.2 34 15.3 50 22.4 16 7.1 67.3 30.1 114 51 46.8 20.9 155.2 69.3 241 107.7 85.8 38.3 156.3 69.9 156.8 70.1 0.4 0.2 0.2-0.6-0.5-1.8-0.6-1.3-131.8-215.4-291.6-475.8-159.7-260.4-290.9-474.1-291.6-474.8-0.9-1.1-1.4-1.1-2.1-0.2zm292.5 1233.3l-291.5 169.2c0 363.9 0.3 469.4 0.7 469.3 0.4-0.2 131.9-181.8 292.3-403.5 160.3-221.8 291.5-403.5 291.5-403.8 0-0.3-0.3-0.5-0.7-0.4-0.5 0-132 76.2-292.3 169.2z"/>
		<path id="Path 2" class="s2" d="m1281.6 324.3c-2.7 4.5-7.7 12.7-11.1 18.2-3.4 5.5-10.5 17-15.7 25.5-5.2 8.5-30.1 49.2-55.5 90.5-25.3 41.2-47.8 77.9-50 81.5-2.2 3.6-9 14.8-15.3 25-6.2 10.2-14.1 23-17.5 28.5-3.4 5.5-10.5 17-15.7 25.5-5.2 8.5-30.1 49.2-55.5 90.5-25.3 41.2-47.8 77.9-50 81.5-2.2 3.6-9 14.8-15.3 25-6.2 10.2-14.1 23-17.5 28.5-3.4 5.5-10.5 17-15.7 25.5-5.2 8.5-30.9 50.6-57.3 93.5-26.3 42.9-50.6 82.5-54 88-3.4 5.5-10.5 17-15.7 25.5-5.2 8.5-30.9 50.6-57.2 93.5-26.3 42.9-50.1 81.5-52.7 85.7-2.7 4.3-4.8 8.2-4.6 8.8 0.1 0.5 56-24 124.2-54.5 68.2-30.5 199.4-89.1 291.5-130.3l167.5-74.8c0.5-620.2 0.3-689.4-0.7-689.4-0.7 0.1-3.5 3.8-6.2 8.3zm-575.1 1056.5c1 1.5 21.2 29.5 44.8 62.2 23.6 32.7 44.8 62 47.1 65.1 2.2 3.1 7.3 10 11.1 15.4 3.9 5.3 9.7 13.4 12.9 17.9 3.3 4.4 8.8 12 12.3 16.9 3.5 4.8 9.2 12.6 12.6 17.5 3.5 4.8 26.3 36.4 50.7 70.2 24.4 33.8 46.9 64.9 49.9 69.1 3.1 4.2 8.8 12 12.6 17.4 3.9 5.3 9.7 13.4 12.9 17.9 3.3 4.4 8.7 11.9 12.1 16.6 3.4 4.7 9.1 12.6 12.7 17.5 3.6 5 26.4 36.7 50.8 70.5 24.4 33.8 46.9 64.9 49.9 69.1 3.1 4.2 8.8 12 12.6 17.4 3.9 5.3 9.7 13.4 12.9 17.9 3.3 4.4 8.7 11.9 12.1 16.6 3.4 4.7 9.1 12.6 12.7 17.5 3.6 5 28.1 38.8 54.4 75.3 26.3 36.5 50.7 70.2 54.1 75 3.5 4.8 9.2 12.8 12.8 17.7 3.6 4.9 8.7 12.3 11.5 16.3 2.7 3.9 5.5 7 6 6.7 0.7-0.3 1-79.2 1-233.7 0-128.3-0.4-233.8-0.8-234.4-0.4-0.6-5.4-3.8-11.2-7.1-5.8-3.3-15-8.6-20.5-11.8-5.5-3.2-18.3-10.6-28.5-16.5-10.2-5.9-25-14.6-33-19.2-8-4.6-22.1-12.9-31.5-18.3-9.3-5.4-22.2-12.9-28.5-16.5-6.3-3.7-16-9.3-21.5-12.5-5.5-3.2-16.7-9.7-25-14.5-8.2-4.8-23.5-13.7-34-19.8-10.4-6-25.5-14.8-33.5-19.4-8-4.6-22.1-12.9-31.5-18.3-9.3-5.4-19.5-11.3-22.5-13-3-1.8-10-5.8-15.5-9-5.5-3.2-12.5-7.3-15.5-9-3-1.8-14-8.2-24.5-14.2-10.4-6.1-25.5-14.9-33.5-19.5-8-4.6-22.1-12.9-31.5-18.3-9.3-5.4-22.2-12.9-28.5-16.5-6.3-3.7-16-9.3-21.5-12.5-5.5-3.2-16.9-9.8-25.2-14.7-8.4-4.8-22.4-12.9-31-17.9-8.7-5-20-11.6-25-14.5-5.1-3-9.6-5.4-10-5.4-0.4 0 0.1 1.2 1.2 2.8z"/>
		<path id="Path 3" class="s3" d="m1289 1306c0 199.3 0.3 300 1 300 0.5 0 132.1-76.1 292.3-169.1 160.1-92.9 291.2-169.6 291.2-170.4 0-0.7-0.3-1.1-0.8-0.9-0.4 0.2-70.8-30.9-156.4-69.2-85.7-38.3-194-86.7-240.8-107.6-46.7-20.9-98-43.9-114-51-16-7.1-38.5-17.2-50-22.4-11.5-5.1-21.3-9.4-21.7-9.4-0.5 0-0.8 135-0.8 300z"/>
	</g>
</svg>