<svg version="1.2" xmlns="http://www.w3.org/2000/svg" viewBox="0 0 512 512" width="512" height="512">
	<title>checkmark</title>
	<style>
		.s0 { fill: #33A466 }
	</style>
	<path id="Path 0" fill-rule="evenodd" class="s0" d="m257-1c6.1 0 11.2 0.3 11.4 0.8 0.2 0.4 5.3 1.1 11.2 1.5 6 0.4 14.3 1.4 18.4 2.2 4.1 0.7 11.8 2.3 17 3.4 5.2 1.2 10.9 3 12.5 4 1.6 1.1 4.9 4 7.3 6.5 2.5 2.7 4.7 6.3 5.3 8.8 0.9 3.2 0.9 5.7 0 9.8-0.6 3-2.4 7.5-4 10-1.6 2.5-4.6 5.8-6.8 7.4-2.1 1.7-5.3 3.6-7 4.3-1.8 0.7-5.2 1.3-7.5 1.3-2.4 0-8.8-0.9-14.3-1.9-5.5-1.1-15.2-2.6-21.5-3.2-7.3-0.8-18.7-1-31.5-0.6-11 0.4-21.8 1.1-24 1.6-2.2 0.5-8.5 1.8-14 3-5.5 1.2-14.1 3.5-19 5.3-4.9 1.7-11.9 4.4-15.5 6-3.6 1.6-9.7 4.5-13.5 6.5-3.8 2-8.1 4.4-9.5 5.3-1.4 0.9-5.4 3.6-9 6-3.6 2.4-9.9 7.2-14 10.6-4.1 3.4-11.8 10.6-17 16-5.3 5.5-12 13.1-15 16.9-3 3.8-7.3 9.7-9.4 13-2.1 3.3-4.7 7.1-5.6 8.5-0.9 1.4-3.5 6.1-5.8 10.5-2.2 4.4-5.3 11.2-7 15-1.6 3.8-3.5 8.8-4.2 11-0.6 2.2-1.6 4.9-2.1 6-0.5 1.1-2.1 6.9-3.4 13-1.4 6.1-3.1 13.5-3.8 16.5-0.7 3.5-1.1 15-1.1 32 0 15.5 0.5 28.4 1.1 31 0.6 2.5 2.1 9 3.2 14.5 1.2 5.5 3.7 14.5 5.7 20 1.9 5.5 4.6 12.4 5.9 15.3 1.4 2.8 2.5 5.4 2.5 5.7 0 0.3 2.3 4.7 5.1 9.8 2.8 5 7.4 12.6 10.2 16.7 2.7 4.1 8.3 11.6 12.3 16.5 4 4.9 10.8 12.4 15.1 16.5 4.3 4.1 9.1 8.5 10.6 9.8 1.5 1.2 6.6 5 11.5 8.5 4.8 3.4 9.8 7 11.2 7.8 1.4 0.9 6.3 3.7 11 6.3 4.7 2.6 11.7 6.1 15.5 7.8 3.8 1.6 11.5 4.6 17 6.5 5.5 1.9 14.3 4.4 19.5 5.5 5.2 1.1 11.5 2.5 14 3.1 2.6 0.6 15.6 1.1 31 1.1 15.8 0 28.3-0.4 31-1.1 2.5-0.6 9-2.1 14.5-3.2 5.5-1.2 14.5-3.7 20-5.7 5.5-1.9 11.6-4.2 13.5-5 1.9-0.9 7.1-3.4 11.5-5.6 4.4-2.2 10.7-5.6 14-7.6 3.3-2 9.8-6.3 14.5-9.7 4.7-3.3 10.1-7.4 12-9 1.9-1.6 7.8-7.2 13-12.5 5.2-5.2 10.4-10.6 11.5-12 1.1-1.4 3.4-4.3 5.1-6.5 1.7-2.2 5.4-7.4 8.1-11.5 2.8-4.1 7.2-11.3 9.8-16 2.5-4.7 6-11.6 7.7-15.5 1.6-3.9 4.5-11.3 6.4-16.5 1.8-5.2 4.3-14 5.5-19.5 1.1-5.5 2.5-12 3-14.5 0.6-2.5 1.4-12.1 1.8-21.5 0.5-9.4 1.4-18.1 1.9-19.5 0.6-1.4 2.4-4.4 4.1-6.8 2.1-2.8 4.9-5 8.6-6.7 3.7-1.7 7.4-2.5 11.3-2.6 4 0 7.3 0.6 11.2 2.3 3.5 1.5 6.7 3.9 8.6 6.4 1.7 2.1 3.7 5.7 4.4 7.9 0.9 2.9 1.1 7.5 0.5 17-0.4 7.1-1.1 15.9-1.5 19.5-0.5 3.6-1.8 12.1-3 19-1.1 6.9-3.2 16.3-4.6 21-1.4 4.7-4.4 13.7-6.6 20-2.2 6.3-7 17.4-10.5 24.5-3.5 7.1-7.6 15-9 17.5-1.5 2.5-5.6 8.8-9.1 14-3.6 5.2-10.7 14.4-15.7 20.5-5.1 6.1-14.2 15.7-20.1 21.5-6 5.8-15.4 13.9-20.9 18-5.5 4.1-12.7 9.3-16 11.4-3.3 2.2-7.4 4.8-9 6-1.6 1.1-8.2 4.5-14.5 7.7-6.3 3.1-15.3 7.2-20 9.2-4.7 1.9-13.7 5-20 7-6.3 1.9-15.8 4.5-21 5.7-5.2 1.2-14.2 2.8-20 3.6-5.8 0.7-17 1.6-25 2-8.5 0.4-20.5 0.2-29-0.5-8-0.7-17.2-1.6-20.5-2.2-3.3-0.5-8.7-1.6-12-2.4-3.3-0.8-9.4-2.2-13.5-3.1-4.1-0.9-7.9-2-8.5-2.4-0.6-0.4-3.7-1.5-7-2.5-3.3-0.9-9.8-3.3-14.5-5.2-4.7-1.9-12.8-5.6-18-8.2-5.2-2.6-13.1-6.9-17.5-9.6-4.4-2.7-14-9.4-21.4-14.9-7.9-5.9-18.9-15.5-26.5-23.1-7.1-7.1-14.6-15.3-16.7-18-2.1-2.8-5.5-7.3-7.6-10-2.1-2.8-5.4-7.5-7.4-10.5-2-3-5-7.8-6.7-10.5-1.7-2.8-5.3-9.5-8.1-15-2.7-5.5-6.4-13.4-8.1-17.5-1.7-4.1-4.7-12.2-6.6-18-1.9-5.8-4.8-15.9-6.4-22.5-1.6-6.6-3.4-14.9-3.9-18.5-0.6-3.6-1.6-12.4-2.2-19.5-0.6-7.1-1.3-16.6-1.6-21-0.2-4.9 0-8.4 0.7-9 0.6-0.6 1-3.9 1-7.5 0-3.6 0.7-11.2 1.4-17 0.8-5.8 2.4-14.8 3.6-20 1.2-5.2 3.5-14 5.2-19.5 1.7-5.5 5-14.9 7.3-21 2.4-6.1 6.7-15.7 9.6-21.5 2.9-5.8 9.1-16.3 13.7-23.5 4.7-7.2 9.9-14.7 11.6-16.9 1.7-2.1 6.9-8.2 11.6-13.4 4.7-5.3 11.7-12.6 15.5-16.3 3.8-3.7 10.2-9.3 14-12.6 3.8-3.3 10.9-8.7 15.8-12.1 4.8-3.4 13.3-8.9 18.9-12.1 5.7-3.2 13.7-7.5 17.8-9.4 4.1-1.9 10-4.5 13-5.7 3-1.2 10-3.7 15.5-5.6 5.5-2 15.6-4.9 22.5-6.6 6.9-1.6 17.2-3.6 23-4.3 5.8-0.8 13.3-1.5 16.8-1.5 3.4 0 6.4-0.5 6.7-1 0.4-0.6 5.3-1 11.5-1zm178.5 105.8c2.2 0.2 5.8 1.2 8 2.1 2.2 1 6.1 3.7 8.6 6.2 3.4 3.2 5.2 5.9 6.4 9.9 1.7 5.2 1.7 5.9 0.1 12-0.9 3.6-2.5 7.8-3.5 9.5-1.1 1.7-10.1 12.4-20.1 24-10 11.6-21.3 24.4-25 28.5-3.7 4.1-14.7 16.7-24.5 28-9.7 11.3-20.8 23.9-24.5 28-3.6 4.1-11.4 12.9-17.1 19.5-5.8 6.6-13.8 15.9-17.9 20.6-4.1 4.8-13.8 15.8-21.5 24.5-7.6 8.8-17 19.5-20.8 23.9-3.8 4.4-9 9.7-11.5 11.8-3.3 2.6-6.3 4.1-10.2 4.8-3.8 0.7-7.1 0.7-10.5 0-3.5-0.7-6.7-2.4-10.5-5.5-3-2.5-22-21.1-42.2-41.3-20.1-20.2-38-38.6-39.7-40.8-2-2.5-3.5-6.1-4.2-9.5-0.7-3.8-0.7-7 0-10.5 0.7-3.4 2.5-6.8 5.3-10.3 3-3.7 5.9-6.1 9.6-7.8 3.5-1.6 7-2.4 10.7-2.4 3.4 0 7.3 0.8 10.3 2.1 3.1 1.4 8.6 5.9 16.2 13.3 6.3 6.2 20.1 19.4 30.5 29.4 10.4 10 19.3 18.1 19.7 18 0.4-0.2 7.1-7.8 15-16.9 7.9-9.1 22.4-25.7 32.2-37 9.8-11.2 25.4-29 34.6-39.4 9.2-10.4 21.3-24.4 27-31 5.7-6.6 15.3-17.6 21.4-24.5 6-6.9 13.7-15.6 17-19.5 3.4-3.8 8.4-9.4 11.1-12.3 3.1-3.3 6.2-5.6 8.3-6.1 1.8-0.4 4.3-1 5.5-1.3 1.2-0.3 4-0.3 6.2 0z"/>
</svg>