<svg version="1.2" xmlns="http://www.w3.org/2000/svg" viewBox="0 0 512 512" width="512" height="512">
	<title>copy</title>
	<style>
		.s0 { fill: #E7E8E9 }
	</style>
	<path id="Path 0" fill-rule="evenodd" class="s0" d="m163.5 0h118.7c114.2 0 119.1 0.1 126 1.9 4 1.1 9.8 2.9 12.8 4 3 1.1 9 4.3 13.2 7.1 4.3 2.7 10.3 7.6 13.5 10.8 3.1 3.1 7.8 9.1 10.5 13.2 2.7 4.1 5.8 10 6.9 13 1.1 3 2.8 8 3.7 11 1.5 5 1.7 19.5 2.2 326.5l-2.5 4.3c-1.4 2.3-4.4 5.4-6.7 7-3.5 2.3-5.2 2.7-10.8 2.7-5.4 0-7.4-0.5-10.6-2.6-2.1-1.4-5-4.3-8.9-10.4l-1-318-3-6.5c-1.7-3.6-5.1-8.7-7.5-11.3-2.9-3.2-7.1-6.2-19.4-12.2l-238.2-1-4-2.6c-2.1-1.4-5-4.3-6.4-6.5-2-3.1-2.5-5.2-2.5-10.4 0-5.2 0.5-7.3 2.5-10.5 1.4-2.1 4.5-5.2 7-6.7zm54.5 81.4c96 0.1 107 0.3 112 1.8 3 0.9 8 2.6 11 3.7 3 1.1 9 4.3 13.3 7 4.2 2.8 10.3 7.7 13.4 10.8 3.1 3.2 7.8 9.2 10.5 13.3 2.7 4.1 5.8 10 6.9 13 1.2 3 2.8 8.2 3.7 11.5 1.6 5.5 1.7 18.9 1.7 154 0 135.1-0.1 148.5-1.7 154-0.9 3.3-2.5 8.5-3.7 11.5-1.1 3-4.2 8.9-6.9 13-2.7 4.1-7.5 10.2-10.8 13.4-3.2 3.3-9.3 8.1-13.4 10.8-4.1 2.7-10 5.8-13 6.9-3 1.1-8.8 2.9-12.7 4-7 1.8-11.8 1.9-112.8 1.9-101 0-105.8-0.1-112.7-1.9-4-1.1-9.8-2.9-12.8-4-3-1.1-8.9-4.2-13-6.9-4.1-2.7-10.2-7.5-13.4-10.8-3.3-3.2-8.1-9.3-10.8-13.4-2.7-4.1-5.8-10-6.9-13-1.1-3-2.8-8-3.7-11-1.5-5-1.7-18.7-1.9-152.8-0.3-142.7-0.2-147.4 1.6-154.5 1.1-3.9 2.9-9.7 4-12.7 1.1-3 4.3-9 7.1-13.3 2.7-4.2 7.6-10.2 10.8-13.3 3.1-3.1 8.2-7.4 11.2-9.4 3-2 7.3-4.6 9.5-5.7 2.2-1.1 6.9-3 10.5-4.1 3.6-1.2 8.8-2.6 11.5-3.1 2.9-0.5 48.8-0.8 111.5-0.7zm-117.4 44.9c-3.2 1.8-7.7 5.2-9.9 7.7-2.3 2.5-5.5 7.4-7.1 11l-3.1 6.5v290.1c6 12.3 9 16.5 12.2 19.3 2.6 2.5 7.7 5.9 11.3 7.5l6.5 3.1h210c10.1-4.7 15.2-8.1 17.8-10.6 3.2-2.8 6.2-7 8.5-11.9l3.7-7.4v-290.2c-6-12.3-9-16.5-12.2-19.4-2.6-2.4-7.7-5.8-11.3-7.5l-6.5-3c-166.3-0.3-207.5 0-210 0.6-2.2 0.6-6.6 2.4-9.9 4.2z"/>
</svg>