<svg version="1.2" xmlns="http://www.w3.org/2000/svg" viewBox="0 0 512 512" width="512" height="512">
	<title>close</title>
	<style>
		.s0 { fill: #E7E8E9 }
	</style>
	<path id="Path 0" class="s0" d="m22.5 2.2c-2.8 1.1-7 3.4-9.3 5.1-2.4 1.8-5.7 5.2-7.3 7.7-1.7 2.5-3.7 7-4.6 10-0.9 3.2-1.4 7.8-1.2 11 0.3 3.5 1.6 7.8 3.6 12 2.9 5.9 12.2 15.5 104.3 107.5l101 101c-186.3 186.5-204.1 204.9-206 209-1.3 3-2.4 7.8-2.7 12-0.4 5.7-0.1 8.1 1.8 13 1.4 3.7 4 7.9 6.8 10.9 2.5 2.6 7.2 6.1 10.4 7.7 4.9 2.5 6.9 2.9 14 2.9 6.8 0 9.2-0.4 13.7-2.6 4.7-2.2 20.2-17.3 107.3-104.2l101.7-101.7c182.5 182.2 204.6 203.7 208.8 205.8 4.4 2.3 6.5 2.7 13.7 2.7 7.4 0 9.3-0.4 14.2-2.9 3.2-1.6 7.8-5.1 10.2-7.7 2.5-2.7 5.4-6.9 6.5-9.4 1.6-3.4 2.1-6.6 2.1-13 0-6.9-0.5-9.5-2.4-13.5-1.9-4-22.2-24.8-104.2-107l-101.9-102c188.4-188.3 202.5-202.8 205.1-208 2.2-4.3 3.2-7.9 3.6-13 0.4-5.5 0.1-8.1-1.6-12.5-1.1-3-3.4-7.3-5.2-9.5-1.7-2.2-4.8-5.2-6.8-6.7-2-1.4-6.1-3.6-9.1-4.7-3-1.2-7.5-2.1-10-2.1-2.5 0-6.5 0.7-9 1.6-2.5 0.9-5.9 2.3-7.5 3.1-1.6 0.8-48.8 47.2-104.8 103.1l-101.7 101.7c-157.7-157.6-204.8-204-206.5-204.8-1.6-0.8-5-2.2-7.5-3.1-2.5-0.9-6.7-1.5-9.5-1.5-2.7 0.1-7.2 1-10 2.1z"/>
</svg>