<svg width="20" height="14" viewBox="0 0 20 14" fill="none" xmlns="http://www.w3.org/2000/svg">
<path d="M16.7467 1.63068C15.1307 0.332009 12.5754 0.112009 12.4674 0.102675C12.2967 0.0880088 12.1347 0.184676 12.0647 0.340676C12.0621 0.346009 11.9194 0.760009 11.7814 1.15934C13.6594 1.48801 14.9354 2.21734 15.0034 2.25734C15.3221 2.44268 15.4287 2.85134 15.2427 3.16934C15.1194 3.38134 14.8961 3.50001 14.6667 3.50001C14.5527 3.50001 14.4381 3.47134 14.3327 3.41001C14.3141 3.39868 12.4421 2.33334 10.0014 2.33334C7.56008 2.33334 5.68741 3.39934 5.66875 3.41001C5.35075 3.59468 4.94275 3.48601 4.75808 3.16734C4.57341 2.85001 4.68075 2.44268 4.99808 2.25734C5.06608 2.21734 6.34675 1.48534 8.23008 1.15734C8.08475 0.753342 7.93808 0.346009 7.93541 0.340676C7.86541 0.184009 7.70341 0.0853421 7.53275 0.102675C7.42475 0.111342 4.86941 0.331342 3.23208 1.64801C2.37608 2.43868 0.666748 7.06134 0.666748 11.058C0.666748 11.1287 0.684748 11.1973 0.720081 11.2587C1.90075 13.332 5.11941 13.8747 5.85275 13.898C5.85741 13.8987 5.86141 13.8987 5.86541 13.8987C5.99475 13.8987 6.11675 13.8367 6.19341 13.732L6.98675 12.6573C5.24675 12.238 4.32675 11.5787 4.27141 11.538C3.97541 11.32 3.91141 10.9027 4.12941 10.606C4.34675 10.3107 4.76275 10.2453 5.05875 10.462C5.08341 10.478 6.78141 11.6667 10.0001 11.6667C13.2314 11.6667 14.9247 10.4733 14.9414 10.4613C15.2374 10.2467 15.6547 10.3113 15.8714 10.6087C16.0874 10.9047 16.0247 11.3193 15.7301 11.5367C15.6747 11.5773 14.7594 12.2353 13.0234 12.6547L13.8067 13.7313C13.8834 13.8367 14.0054 13.898 14.1347 13.898C14.1394 13.898 14.1434 13.898 14.1474 13.8973C14.8814 13.874 18.1001 13.3313 19.2801 11.258C19.3154 11.1967 19.3334 11.128 19.3334 11.0573C19.3334 7.06134 17.6241 2.43868 16.7467 1.63068ZM7.33341 9.66667C6.59675 9.66667 6.00008 8.92068 6.00008 8.00001C6.00008 7.07934 6.59675 6.33334 7.33341 6.33334C8.07008 6.33334 8.66675 7.07934 8.66675 8.00001C8.66675 8.92068 8.07008 9.66667 7.33341 9.66667ZM12.6667 9.66667C11.9301 9.66667 11.3334 8.92068 11.3334 8.00001C11.3334 7.07934 11.9301 6.33334 12.6667 6.33334C13.4034 6.33334 14.0001 7.07934 14.0001 8.00001C14.0001 8.92068 13.4034 9.66667 12.6667 9.66667Z" fill="#E0E6EE"/>
</svg>
