<svg version="1.2" xmlns="http://www.w3.org/2000/svg" viewBox="0 0 512 512" width="512" height="512">
	<title>sent</title>
	<style>
		.s0 { fill: #33A466 }
	</style>
	<path id="Path 0" class="s0" d="m354.6 112.3c-2.4 1.3-16.7 15.9-35.6 36.2-17.3 18.7-42.6 45.9-56 60.5-13.5 14.5-39.4 42.5-57.5 62-18.2 19.6-42.2 45.6-53.5 57.8-11.3 12.2-20.8 22.1-21.1 22-0.3-0.2-8.7-9.1-18.6-19.8-9.9-10.7-29.9-32.3-44.4-48-14.5-15.6-28.2-29.7-30.4-31.3-3-2.1-5.6-3-10.5-3.4-5.6-0.6-7.2-0.3-12 1.9-3 1.4-7 4.3-8.8 6.4-1.8 2.2-4 6.4-4.8 9.4-1 3.6-1.3 6.9-0.9 9.5 0.4 2.2 1.5 5.6 2.5 7.5 1 1.9 6 8 11.1 13.5 5.2 5.6 16.9 18.2 26 28 9.1 9.9 26.4 28.7 38.5 41.7 12 13 23.9 25.2 26.4 27 2.5 1.8 7.5 4.5 11.2 6 5.6 2.3 8.3 2.8 15.3 2.8 4.7 0 9.3-0.4 10.2-0.9 1-0.4 4-1.8 6.8-3 2.7-1.3 6.5-3.2 8.3-4.4 1.8-1.2 22.1-22.4 45-47.2 22.9-24.7 45.1-48.6 49.2-53 4.1-4.4 15.6-16.8 25.5-27.5 9.9-10.7 29.5-31.9 43.6-47 14-15.1 34.4-37.2 45.3-49 10.9-11.8 20.6-23.1 21.6-25 0.9-1.9 2-5.1 2.4-7 0.3-1.9 0.2-5.7-0.4-8.5-0.5-2.9-2.4-6.9-4.3-9.5-1.9-2.5-5.6-5.7-8.3-7.2-4-2.2-6.1-2.7-11.4-2.7-4.7 0.1-7.6 0.7-10.4 2.2zm122.9-0.6c-1.7 0.9-4.1 2.5-5.5 3.7-1.4 1.2-14.4 14.9-29 30.6-14.5 15.7-32.3 34.8-39.5 42.5-7.1 7.8-20.7 22.4-30 32.5-9.4 10.1-29.1 31.5-43.9 47.4-14.9 16-34.7 37.4-44 47.5-9.4 10.2-21.7 23.5-27.4 29.5-5.6 6.1-11.2 13.1-12.4 15.6-1.7 3.6-2 5.9-1.7 11.7 0.3 6 0.9 7.8 3.5 11.5 1.6 2.3 5.2 5.7 7.9 7.3 3.3 2 6.5 3.1 9.9 3.4 2.8 0.1 7-0.2 9.3-0.8 2.4-0.6 6-2.6 8-4.3 2-1.8 21.4-22.4 43.1-45.8 21.7-23.4 47-50.6 56.1-60.5 9.1-9.9 25.6-27.6 36.6-39.5 11-11.8 33.5-36.1 50-53.9 16.5-17.8 32.2-34.9 34.9-38 2.7-3.1 5.5-7.1 6.3-8.8 0.7-1.8 1.3-5.8 1.3-8.8 0-3-0.7-7.2-1.6-9.2-0.8-2.1-2.7-5.1-4.2-6.7-1.5-1.6-4.7-4.2-7.2-5.7-3.8-2.5-5.5-2.9-11-2.9-4 0.1-7.7 0.7-9.5 1.7z"/>
</svg>