<svg version="1.2" xmlns="http://www.w3.org/2000/svg" viewBox="0 0 512 512" width="512" height="512">
	<title>logout</title>
	<style>
		.s0 { fill: #E7E8E9 }
	</style>
	<path id="Path 0" class="s0" d="m96.5 1.6c-2.8 0.7-8.2 2.5-12 3.9-3.8 1.4-10 4.4-13.7 6.8-3.7 2.3-10 7.3-13.9 11.2-3.9 3.9-9 10.1-11.4 14-2.4 3.9-5.6 10.1-7.1 14-1.4 3.9-3.2 10.4-4 14.5-1.1 6.1-1.3 40.6-1.3 190 0 149.4 0.2 183.9 1.3 190 0.8 4.1 2.6 10.6 4.1 14.5 1.4 3.9 4.3 9.7 6.3 13 2 3.3 6.8 9.3 10.7 13.4 3.8 4 9.9 9.3 13.5 11.6 3.6 2.4 9.3 5.5 12.8 6.9 3.4 1.4 9.6 3.5 13.7 4.6 7.3 1.9 10.7 2 128.8 2h121.2c9.2-5.5 11.9-8.1 14-11.4 2.7-4.4 3-5.8 3-12.6 0-6.8-0.3-8.2-3.1-12.6-1.8-3-4.8-6-7.9-7.9l-4.8-3-242.2-1c-8.1-4.3-12.2-7.2-14.2-9.3-2-2-4.8-6.2-6.2-9.2l-2.6-5.5v-367c4-8.5 6.8-12.7 8.8-14.8 2-2 6.1-4.9 8.9-6.4l5.3-2.8 242.2-1c7.9-4.9 10.9-7.9 12.7-10.9 2.8-4.4 3.1-5.8 3.1-12.6 0-6.8-0.3-8.2-3-12.6-2.1-3.3-4.8-5.9-8.5-8.2l-5.5-3.2c-220.8 0.2-245 0.5-249 1.6zm234 118.7c-2.8 1.3-6.4 3.9-8 5.9-1.6 2-3.6 5.3-4.2 7.4-0.7 2.2-1.3 6.1-1.3 8.9 0 2.9 0.9 6.9 2.1 9.5 1.5 3.3 11.8 14.3 39.7 42.3l37.7 37.7c-167.7 0-193 0.3-196 1.2-2.4 0.8-6 3.2-9 6.3-3.1 3-5.5 6.6-6.3 9-0.6 2.2-1.2 5.6-1.2 7.5 0 1.9 0.6 5.3 1.2 7.5 0.8 2.4 3.2 6 6.3 9 3 3.1 6.6 5.5 9 6.3 3 0.9 28.2 1.2 99.5 1.2h95.5c-57.5 58.5-75.1 77.1-76.1 79-1.3 2.5-1.8 5.7-1.9 11.1 0 6.7 0.3 8.1 3.1 12.5 1.7 2.9 4.8 6 7.5 7.7 2.4 1.5 6.6 3 9.4 3.4 3 0.3 7 0.1 10-0.7 4.8-1.2 7.8-4.1 65.8-61.9 44.4-44.2 61.5-61.9 63.3-65.4 1.6-3.1 2.4-6.4 2.4-9.7q0-5-2.4-9.8c-1.8-3.4-19-21.2-63.3-65.4-52.1-52-61.4-60.8-64.8-61.7-2.2-0.6-6-1.1-8.5-1.1-2.6 0-6.6 1-9.5 2.3z"/>
</svg>