<svg version="1.2" xmlns="http://www.w3.org/2000/svg" viewBox="0 0 512 512" width="512" height="512">
	<title>contract</title>
	<style>
		.s0 { fill: #E7E8E9 }
	</style>
	<path id="Path 0" fill-rule="evenodd" class="s0" d="m36.5 0.1l274.5-0.1 7.3 3c3.9 1.7 9.4 4.8 12.2 7 2.8 2.1 15.4 14.3 28.1 27.2 19.4 19.6 23.5 24.3 26.2 29.8 1.8 3.6 3.6 9 4.2 12 0.6 3.3 1 29.4 1 127.5l25.2-25.2c21.9-21.8 26.2-25.6 31.8-28.2 3.6-1.7 9.4-3.7 13-4.3 5-0.9 8.1-0.9 13.5 0 3.9 0.6 9.7 2.5 13 4.1 3.3 1.6 7.8 4.4 10 6.3 2.2 1.9 5.2 5.3 6.7 7.4 1.5 2.1 4.1 7.2 5.8 11.1 2.5 6 3 8.7 3 15 0 5.5-0.6 9.4-2.1 13.3-1.2 3-3 7.3-4.1 9.5-1.3 2.5-23.4 25.4-115.8 118v68c0 42.6-0.4 70.1-1 73.5-0.6 3-2.3 8.2-3.9 11.5-1.6 3.3-4.4 7.8-6.3 10-1.9 2.2-5.3 5.2-7.4 6.7-2.1 1.5-7.2 4.1-18.4 8.8h-316l-7.3-3c-3.9-1.7-9-4.3-11.1-5.8-2.1-1.5-5.5-4.5-7.4-6.7-1.9-2.2-4.7-6.7-6.3-10-1.6-3.3-3.3-8.5-3.9-11.5-0.7-3.7-1-76.4-1-219 0-142.6 0.3-215.3 1-219 0.6-3 2.3-8.2 3.9-11.5 1.6-3.3 4.4-7.8 6.3-10 1.9-2.2 5.3-5.2 7.4-6.7 2.1-1.5 7-4.1 10.9-5.7zm-3.9 37.4l-2.6 3.9 0.1 429c3.5 6.1 6 8.6 8.1 9.6 3.7 1.9 8.7 1.9 156.8 1.9 151 0 153.1 0 157-2q4-2 6-6c1.9-3.8 2-6 2-57.2l0.1-53.3c-3.8 3.7-16.1 8.3-39.1 16-19 6.4-35.9 11.5-37.5 11.5-1.6 0-4.6-0.8-6.5-1.8-1.9-1-4.5-3.6-5.7-5.8-1.3-2.1-2.3-5.2-2.3-6.9 0-1.6 5.2-18.5 11.5-37.5l11.5-34.5 68-68v-116.5c-75.3 0-78.3-0.1-81.8-1.9-2.1-1-4.6-3.5-5.9-5.7-2.2-3.8-2.2-4.4-2.3-43.1v-39.3c-222.4 0.1-228.7 0.2-231.6 1.9-1.8 1-4.3 3.6-5.8 5.7zm267.4 52.4h60c0-3.8-0.6-6.4-1.4-8.2-0.8-1.8-11.9-13.7-24.7-26.5-12.9-12.7-24.6-23.6-26.2-24.2-1.5-0.6-3.8-1.1-5.2-1.1h-2.5zm149.2 99.3l-8.2 8.2 21.5 21.5c12.1-12 16.4-17.3 17.5-19.5 1.1-2.2 2-5.2 2-6.7 0-1.5-0.9-4.6-2-6.8q-2-4-6-6c-2.2-1.1-5.5-2-7.3-2-1.7 0-4.6 0.7-6.2 1.6-1.6 0.8-6.7 5.2-11.3 9.7zm-101.7 101.7l21.5 21.5 72-72-21.5-21.4zm-34.4 45c-2.8 8.5-5 15.6-4.9 15.7 0.2 0.1 7.2-2.1 15.8-4.9 13.2-4.3 16-5.6 19.5-9l4-3.8c-16.3-16.3-21.3-21.1-21.6-21.1-0.3 0-2.1 1.7-4.1 3.8-2.9 3.1-4.5 6.5-8.7 19.3zm-133.4-186c106.3 0 108.3 0 112.3 2q4 2 6 6c1.1 2.2 2 5.3 2 7 0 1.6-0.9 4.8-2 7q-2 4-6 6c-4 1.9-6 2-112 2-104 0-108.2-0.1-111.8-1.9-2.1-1.1-4.7-3.6-5.9-5.8-1.3-2.1-2.3-5.4-2.3-7.3 0-2.2 1-5.1 2.6-7.5 1.4-2.1 4-4.7 5.7-5.7 3-1.7 9-1.8 111.4-1.8zm-30 60c76.3 0 78.4 0 82.3 2q4 2 6 6c1.1 2.2 2 5.3 2 7 0 1.6-0.9 4.8-2 7q-2 4-6 6c-3.9 1.9-6 2-82 2-74.5 0-78.2-0.1-81.8-1.9-2.1-1.1-4.7-3.6-5.9-5.8-1.3-2.1-2.3-5.4-2.3-7.3 0-2.2 1-5.1 2.6-7.5 1.4-2.1 4-4.7 5.7-5.7 3-1.7 7.9-1.8 81.4-1.8zm0 60c76.3 0 78.4 0 82.3 2q4 2 6 6c1.1 2.2 2 5.3 2 7 0 1.6-0.9 4.8-2 7q-2 4-6 6c-3.9 1.9-6 2-82 2-74.5 0-78.2-0.1-81.8-1.9-2.1-1.1-4.7-3.6-5.9-5.8-1.3-2.1-2.3-5.4-2.3-7.3 0-2.2 1-5.1 2.6-7.5 1.4-2.1 4-4.7 5.7-5.7 3-1.7 7.9-1.8 81.4-1.8zm0 60c76.3 0 78.4 0 82.3 2q4 2 6 6c1.1 2.2 2 5.3 2 7 0 1.6-0.9 4.8-2 7q-2 4-6 6c-3.9 1.9-6 2-82 2-74.5 0-78.2-0.1-81.8-1.9-2.1-1.1-4.7-3.6-5.9-5.8-1.3-2.1-2.3-5.4-2.3-7.3 0-2.2 1-5.1 2.6-7.5 1.4-2.1 4-4.7 5.7-5.7 3-1.7 7.9-1.8 81.4-1.8zm90 92c46.3 0 48.4 0 52.3 2q4 2 6 6c1.1 2.2 2 5.3 2 7 0 1.6-0.9 4.8-2 7q-2 4-6 6c-3.9 1.9-6 2-52 2-45.1 0-48.3-0.2-51.8-1.9-2.1-1.1-4.7-3.6-5.9-5.8-1.3-2.1-2.3-5.4-2.3-7.3 0-2.2 1-5.1 2.6-7.5 1.4-2.1 4-4.7 5.7-5.7 2.9-1.6 6.8-1.8 51.4-1.8z"/>
</svg>