<svg width="24" height="24" viewBox="0 0 24 24" fill="none" xmlns="http://www.w3.org/2000/svg">
    <path fill-rule="evenodd" clip-rule="evenodd"
          d="M15.0134 2.66663C15.2639 2.66663 15.4365 2.68694 15.6261 2.73774C15.7683 2.77838 15.9714 2.84949 16.073 2.89351C16.1746 2.93753 16.3506 3.04251 16.4623 3.1204C16.574 3.20167 16.7602 3.37098 16.8787 3.49966C16.9972 3.62835 17.1496 3.84846 17.224 3.9873C17.2951 4.12614 17.373 4.30561 17.4441 4.52911H18.4766C19.4821 4.52911 19.5126 4.52911 19.6615 4.60361C19.7462 4.64763 19.8477 4.73568 19.8917 4.80002C19.9324 4.86436 19.9764 4.96256 19.9865 5.02013C20.0001 5.0777 20.0001 5.1759 19.9865 5.24024C19.9764 5.30458 19.9324 5.40956 19.8917 5.4739C19.8477 5.53824 19.7699 5.6229 19.7191 5.66015C19.6277 5.72787 19.5803 5.73126 17.461 5.74819L17.4238 5.84301C17.4035 5.89381 17.3188 6.06989 17.241 6.23921C17.1597 6.40853 17.0209 6.62864 16.9329 6.73023C16.8449 6.83182 16.6959 6.98082 16.6011 7.06209C16.5063 7.14336 16.3066 7.26866 16.1576 7.34316C16.0087 7.41427 15.7582 7.50909 15.599 7.54634C15.3654 7.60729 15.2436 7.61745 14.9389 7.60391C14.6342 7.59036 14.5123 7.57004 14.2618 7.482C14.0959 7.42104 13.8759 7.32284 13.7743 7.26527C13.6761 7.20432 13.4967 7.06209 13.3748 6.95034C13.2529 6.83859 13.0769 6.63203 12.9889 6.49319C12.8975 6.35435 12.7824 6.12746 12.6368 5.74481L7.89045 5.74819C4.60321 5.74819 3.11362 5.73803 3.0493 5.71094C2.99513 5.69063 2.91727 5.64322 2.87664 5.60258C2.83263 5.56194 2.76493 5.47051 2.73107 5.40279C2.69722 5.33167 2.66675 5.21992 2.66675 5.15558C2.66675 5.09124 2.69045 4.97949 2.72091 4.91177C2.748 4.84065 2.79878 4.756 2.82925 4.71875C2.85972 4.68488 2.9342 4.63409 2.98836 4.60022C3.07977 4.54943 3.51649 4.54604 12.6639 4.51218L12.7214 4.34286C12.7519 4.25143 12.8264 4.08211 12.8839 3.97037C12.9449 3.85862 13.0667 3.67575 13.1548 3.56401C13.2462 3.45226 13.4154 3.28633 13.5373 3.19489C13.6558 3.10346 13.8589 2.97817 13.991 2.91721C14.123 2.85626 14.3194 2.78176 14.4311 2.75128C14.5428 2.72081 14.641 2.69033 14.6477 2.68356C14.6545 2.6734 14.8204 2.66663 15.0134 2.66663ZM14.4311 4.07534C14.3566 4.11598 14.2212 4.23111 14.1332 4.32932C14.0417 4.43091 13.9436 4.59007 13.9097 4.6815C13.8759 4.77631 13.8386 4.9287 13.8251 5.02013C13.8115 5.11833 13.8183 5.26733 13.842 5.3757C13.8623 5.47729 13.9165 5.62967 13.9571 5.71433C13.9977 5.79899 14.0993 5.93444 14.1806 6.01571C14.2618 6.09699 14.404 6.20196 14.4988 6.2426C14.5902 6.28662 14.7527 6.33742 14.8542 6.35435C14.9727 6.37805 15.1149 6.37467 15.2436 6.35435C15.3553 6.33742 15.5144 6.29001 15.599 6.24598C15.6837 6.20535 15.8225 6.10037 15.9105 6.01233C16.0019 5.9209 16.1136 5.76174 16.1644 5.65676C16.249 5.48406 16.2592 5.41972 16.2592 5.13865C16.2592 4.86097 16.2457 4.79325 16.1678 4.6307C16.1204 4.52911 16.0053 4.36995 15.9139 4.27852C15.8259 4.18709 15.6667 4.07196 15.5652 4.02455C15.4162 3.95682 15.3181 3.9365 15.0912 3.92973C14.9321 3.92634 14.7493 3.94328 14.685 3.96359C14.6207 3.9873 14.5056 4.03809 14.4311 4.07534ZM6.98315 8.86701C7.13211 8.86701 7.35216 8.88394 7.47404 8.91103C7.59591 8.93474 7.79227 8.99569 7.91414 9.04649C8.03602 9.09389 8.21545 9.18533 8.31701 9.24628C8.41519 9.30385 8.59461 9.44607 8.70972 9.55782C8.82482 9.66957 8.97717 9.85243 9.05164 9.9608C9.12274 10.0725 9.23107 10.2859 9.40034 10.7092L14.4886 10.7261C19.13 10.743 19.5871 10.7464 19.6785 10.7972C19.7326 10.8311 19.8037 10.8819 19.8342 10.9157C19.8647 10.953 19.9154 11.0309 19.9459 11.0918C19.9764 11.1494 20.0001 11.2544 20.0001 11.3187C20.0001 11.3831 19.9764 11.4948 19.9459 11.5659C19.9188 11.6336 19.8681 11.7183 19.8376 11.7556C19.8071 11.7894 19.7326 11.8402 19.6785 11.8741C19.5871 11.9249 19.1266 11.9283 9.39357 11.9621L9.33602 12.1314C9.30555 12.2263 9.23107 12.3922 9.17352 12.5039C9.11258 12.6157 8.98732 12.7985 8.89591 12.9103C8.80112 13.022 8.64539 13.1778 8.54722 13.2591C8.44904 13.337 8.273 13.4521 8.15112 13.5165C8.02925 13.5808 7.82274 13.6654 7.69409 13.7061C7.54852 13.7501 7.32508 13.7874 7.11857 13.7975C6.88836 13.8077 6.70555 13.7975 6.54305 13.7637C6.41102 13.7366 6.20789 13.6756 6.08602 13.6248C5.96414 13.5774 5.78472 13.486 5.68315 13.425C5.58498 13.3675 5.40555 13.2252 5.29045 13.1135C5.17534 13.0017 5.023 12.8189 4.94852 12.7105C4.87743 12.5988 4.76909 12.3854 4.59982 11.9621L3.84487 11.9452C3.23211 11.9316 3.06961 11.9181 2.98836 11.8741C2.93081 11.8402 2.8631 11.7894 2.83263 11.7556C2.80216 11.7183 2.75138 11.6404 2.72091 11.5829C2.69045 11.5219 2.66675 11.4169 2.66675 11.3526C2.66675 11.2882 2.69045 11.1765 2.72091 11.1088C2.748 11.0377 2.79878 10.953 2.82925 10.9157C2.85972 10.8819 2.94435 10.8243 3.01206 10.7904C3.12716 10.7329 3.22196 10.7261 3.86857 10.7261C4.59305 10.7261 4.59644 10.7261 4.6269 10.6516C4.64383 10.6076 4.68107 10.506 4.71154 10.4213C4.74201 10.3367 4.82326 10.1707 4.89097 10.0522C4.96206 9.93371 5.12795 9.73053 5.25998 9.59507C5.39201 9.46301 5.58498 9.30385 5.68315 9.24628C5.78472 9.18533 5.96414 9.09389 6.08602 9.04649C6.20789 8.99569 6.39748 8.93812 6.5092 8.91442C6.62091 8.88733 6.8342 8.86701 6.98315 8.86701ZM6.45841 10.2283C6.37378 10.269 6.22821 10.3807 6.1368 10.4721C6.04201 10.567 5.93368 10.7092 5.89305 10.7938C5.85243 10.8785 5.80503 11.0309 5.7881 11.1325C5.77118 11.2442 5.77118 11.4 5.7881 11.5219C5.80503 11.6336 5.85243 11.7928 5.89305 11.8775C5.93368 11.9621 6.04201 12.1077 6.1368 12.1992C6.22821 12.294 6.37378 12.4023 6.45841 12.443C6.54305 12.4836 6.69539 12.531 6.79696 12.548C6.90868 12.5649 7.0644 12.5649 7.18628 12.548C7.298 12.531 7.45711 12.4836 7.54175 12.443C7.62638 12.4023 7.76857 12.294 7.86336 12.1992C7.95477 12.1077 8.06649 11.9621 8.10711 11.8775C8.14774 11.7928 8.19513 11.6404 8.21206 11.5388C8.22899 11.4271 8.22899 11.2713 8.21206 11.1494C8.19513 11.0377 8.14774 10.8785 8.10711 10.7972C8.06649 10.7159 7.98524 10.594 7.92769 10.5263C7.87013 10.4586 7.74487 10.3536 7.65008 10.296C7.5519 10.2351 7.40972 10.1707 7.32847 10.1538C7.2506 10.1335 7.13888 10.1132 7.08472 10.1064C7.02716 10.0996 6.89852 10.1064 6.79696 10.1233C6.69539 10.1403 6.54305 10.1877 6.45841 10.2283ZM13.8048 15.0606C14.0248 15.0606 14.2144 15.0809 14.3972 15.1283C14.5462 15.169 14.773 15.2503 14.905 15.3146C15.0371 15.3789 15.2402 15.511 15.3587 15.6092C15.4806 15.7074 15.6464 15.8767 15.7311 15.9817C15.8191 16.0867 15.9308 16.2628 15.9884 16.3711C16.0425 16.4795 16.1136 16.6454 16.1983 16.9062L17.9045 16.9231C19.1063 16.9367 19.6311 16.9502 19.6785 16.9807C19.7157 17.001 19.78 17.0552 19.8173 17.0992C19.8579 17.1398 19.9154 17.2279 19.9459 17.2888C19.9764 17.3464 20.0001 17.4514 20.0001 17.5157C20.0001 17.5801 19.9764 17.6918 19.9459 17.7629C19.9188 17.8306 19.8681 17.9153 19.8376 17.9526C19.8071 17.9864 19.7326 18.0372 19.6785 18.0711C19.5904 18.1185 19.3704 18.1286 16.1983 18.1591L16.1407 18.3284C16.1102 18.4233 16.0358 18.5892 15.9782 18.7009C15.9173 18.8127 15.7988 18.9922 15.7108 19.1005C15.6194 19.2055 15.4636 19.3647 15.3621 19.4493C15.2605 19.5306 15.054 19.6627 14.905 19.7338C14.7561 19.8083 14.5428 19.8929 14.4311 19.9268C14.316 19.9573 14.0654 19.9911 13.8556 19.9979C13.6321 20.0047 13.429 19.9945 13.3477 19.9708C13.2733 19.9471 13.0972 19.8895 12.9584 19.8421C12.8196 19.7913 12.5996 19.683 12.4675 19.5949C12.3355 19.5103 12.1391 19.341 12.024 19.2224C11.9123 19.1039 11.7667 18.9143 11.699 18.8025C11.6313 18.6908 11.5399 18.4978 11.4181 18.1422H3.15763L3.00529 18.0677C2.92065 18.0237 2.81909 17.9356 2.77508 17.8713C2.73446 17.8069 2.69045 17.7053 2.68029 17.6512C2.66675 17.597 2.66675 17.4954 2.68029 17.4311C2.69045 17.3667 2.73446 17.2617 2.77508 17.1974C2.81909 17.1331 2.89696 17.0484 2.94774 17.0112C3.04253 16.94 3.0493 16.94 11.4147 16.9062L11.5095 16.6522C11.5636 16.5134 11.6686 16.3 11.7498 16.1815C11.8277 16.063 11.9665 15.8869 12.0613 15.7921C12.1527 15.6973 12.2983 15.572 12.3829 15.5144C12.4675 15.4568 12.6199 15.3654 12.7214 15.3146C12.823 15.2604 13.0363 15.1825 13.1954 15.1419C13.3951 15.0877 13.5813 15.064 13.8048 15.0606ZM13.28 16.4118C13.2056 16.449 13.0701 16.5438 12.9787 16.6251C12.8772 16.7165 12.7756 16.852 12.7079 16.9908C12.6131 17.1906 12.6029 17.238 12.6029 17.5326C12.6029 17.8137 12.6131 17.8781 12.6944 18.0508C12.7485 18.1557 12.8569 18.3115 12.9415 18.3962C13.0261 18.4808 13.1819 18.5892 13.2868 18.64C13.4391 18.7111 13.5475 18.7348 13.754 18.745C13.9639 18.7551 14.0654 18.7416 14.211 18.6874C14.3126 18.6501 14.4615 18.5723 14.5394 18.5147C14.6207 18.4605 14.7391 18.342 14.8035 18.2539C14.8678 18.1625 14.9457 18.0169 14.9761 17.9221C15.01 17.8239 15.0337 17.6546 15.0337 17.5157C15.0303 17.3566 15.0066 17.2109 14.9524 17.0755C14.8983 16.9265 14.8238 16.8181 14.6714 16.6657C14.5259 16.5201 14.4108 16.4389 14.2787 16.3915C14.1772 16.3542 14.0147 16.3136 13.9233 16.3068C13.8285 16.2966 13.6761 16.3 13.5847 16.317C13.4899 16.3339 13.3545 16.3779 13.28 16.4118Z"
          fill="#E7E8E9"/>
</svg>
