<svg version="1.2" xmlns="http://www.w3.org/2000/svg" viewBox="0 0 512 512" width="512" height="512">
	<title>plus</title>
	<style>
		.s0 { fill: #E7E8E9 }
	</style>
	<path id="Path 0" class="s0" d="m244 3.2c-3 1.8-6.8 5.1-8.5 7.3-1.8 2.2-3.7 6.3-4.3 9.3-0.9 3.8-1.2 32.5-1.2 107.7v102.5c-199.2 0.5-210.9 0.7-214 2.1-1.9 0.9-5 2.9-6.9 4.5-1.8 1.6-4.5 4.9-5.9 7.4-1.7 2.9-2.7 6.6-3 10.5-0.4 4.5 0 7.1 1.5 10.5 1.1 2.5 3.5 6.2 5.4 8.3 1.9 2.1 5.4 4.8 7.9 6l4.5 2.2 210.5 0.5c0 177.7 0.3 206.4 1.2 210.3 0.6 2.9 2.5 7 4.3 9.2 1.7 2.2 5.5 5.5 8.5 7.3 4.7 2.8 6.4 3.2 12 3.2 5.3 0 7.4-0.6 11.5-2.9 2.8-1.5 6.3-4.3 7.9-6.2 1.6-1.9 3.6-5 4.5-6.9 1.4-3.1 1.6-14.8 1.8-108.8l0.3-105.2c199.2-0.5 210.9-0.7 214-2.1 1.9-0.9 5-2.9 6.9-4.5 1.8-1.6 4.5-4.9 5.9-7.4 1.7-2.9 2.7-6.6 3-10.5 0.4-4.5 0-7.1-1.5-10.5-1.1-2.5-3.5-6.2-5.4-8.3-1.9-2.1-5.4-4.8-7.9-6l-4.5-2.2-210.5-0.5c-0.5-199.2-0.7-210.9-2.1-214-0.9-1.9-2.9-5-4.5-6.9-1.6-1.9-5.2-4.7-7.9-6.2-4.1-2.3-6.2-2.9-11.5-2.9-5.6 0-7.3 0.4-12 3.2z"/>
</svg>