<svg version="1.2" xmlns="http://www.w3.org/2000/svg" viewBox="0 0 512 512" width="512" height="512">
	<title>reload</title>
	<style>
		.s0 { fill: #E7E8E9 }
	</style>
	<path id="Path 0" class="s0" d="m237.5 1.1c-3.3 0.5-9.8 1.3-14.5 1.9-4.7 0.6-14.1 2.2-21 3.6-6.9 1.4-19.3 4.8-27.5 7.5-9 3-21.8 8.4-32 13.4-9.3 4.6-21.6 11.5-27.2 15.2-5.6 3.7-13.9 9.8-18.5 13.4-4.6 3.7-12.1 10.2-16.7 14.5-4.6 4.4-12.7 12.9-17.9 18.9-5.2 6-13.5 17.1-18.4 24.5-4.9 7.4-12.3 20.3-16.3 28.5-4 8.3-8.9 19.3-10.8 24.5-1.9 5.2-4.9 14.7-6.7 21-1.9 6.6-3.3 13.8-3.3 17 0 3.4 0.7 7.2 2 10 1.1 2.5 3.6 6 5.4 7.9 1.9 1.9 5.4 4.3 7.9 5.4 2.7 1.2 6.7 1.9 10 1.9 3 0 7.1-0.6 9-1.4 1.9-0.8 5.5-3.2 7.9-5.4 2.4-2.1 4.9-5 5.6-6.4 0.7-1.4 2.7-7.7 4.4-14 1.8-6.3 4.8-15.8 6.8-21 2-5.2 5.1-12.4 6.8-16 1.8-3.6 5.7-10.6 8.6-15.5 2.9-4.9 8.5-13.3 12.5-18.5 4-5.2 11.4-13.8 16.5-19.1 5.2-5.2 12.8-12.3 16.9-15.6 4.1-3.3 10.9-8.3 15-11 4.1-2.8 12.2-7.6 18-10.7 5.8-3 15.2-7.4 21-9.6 5.8-2.3 15.4-5.4 21.5-7 6.1-1.6 15.5-3.7 21-4.7 7.2-1.2 16-1.7 31.5-1.7 15.9-0.1 24.4 0.4 32.5 1.7 6.1 1 15.9 3.1 22 4.9 6.1 1.7 15.1 4.6 20 6.5 4.9 1.9 14.2 6.2 20.5 9.5 6.3 3.3 14.6 8.2 18.5 10.8 3.9 2.6 10.6 7.6 15 11 4.4 3.5 11.8 10.2 16.5 14.9 4.7 4.7 11.1 11.8 14.2 15.6 3.1 3.8 8.1 10.8 11.2 15.5 3.1 4.7 5.6 9.1 5.6 9.8 0 0.9-5.9 1.2-26.3 1.2h-26.2c-10.1 4.9-13 7.3-15.1 10.2-1.8 2.4-3.7 6.3-4.4 8.8-0.7 2.7-0.9 6.5-0.5 9.5 0.4 2.8 1.4 6.3 2.2 8 0.8 1.7 2.9 4.5 4.7 6.3 1.7 1.9 4.9 4.3 7.1 5.5 3.9 2.2 4.7 2.2 61 2.5l57 0.2c9.7-4.7 13.2-7.3 14.9-9.7 1.7-2.1 3.6-5.3 4.3-7.1 1-2.5 1.3-15.6 1.3-60v-56.7c-4.3-8.4-7.1-12.1-9-13.7-1.9-1.5-5.5-3.5-8-4.3-2.5-0.8-6.3-1.5-8.5-1.5-2.2 0-6 0.6-8.5 1.5-2.9 0.9-6.2 3.2-9.1 6.2-3.2 3.4-5.1 6.4-6.3 10.3-1.1 3.8-1.6 9.2-1.6 17.3 0 6.8-0.4 11.9-1 12.2-0.6 0.3-4.3-3.4-8.4-8.3-4-4.8-11.8-13-17.2-18.2-5.5-5.3-13.3-12.2-17.4-15.6-4.1-3.3-10.4-8-14-10.5-3.6-2.5-9.9-6.6-14-9.1-4.1-2.5-12-6.8-17.5-9.6-5.5-2.8-15.6-7.3-22.5-10-6.9-2.7-18.6-6.5-26-8.5-7.4-2-19.4-4.5-26.5-5.6-7.1-1.1-16.8-2.5-21.5-3-4.7-0.6-13.4-1-19.5-1-6.1 0.1-13.7 0.5-17 1zm236.5 281.2c-2.5 0.7-6.1 2.2-8 3.4-1.9 1.1-4.9 4-6.5 6.4-2 2.8-4.3 8.9-6.7 17.4-2 7.1-4.7 15.9-6.1 19.5-1.4 3.6-4.2 10.1-6.2 14.5-2 4.4-6.2 12.3-9.3 17.5-3.1 5.2-8.8 13.8-12.8 19-3.9 5.2-11.8 14.2-17.5 20-5.7 5.8-14.9 13.9-20.4 18.1-5.5 4.2-13.4 9.6-17.5 12.1-4.1 2.5-11.1 6.3-15.5 8.5-4.4 2.3-12.3 5.7-17.5 7.7-5.2 2.1-15.4 5.2-22.5 7.1-7.1 1.8-19.5 4.1-27.5 5-10.7 1.3-18.7 1.6-30.5 1.2-8.8-0.3-20.5-1.3-26-2.1-5.5-0.9-14.9-3-21-4.6-6.1-1.7-14.6-4.5-19-6.1-4.4-1.7-12.7-5.4-18.5-8.3-5.8-2.9-14.8-8.1-20-11.5-5.2-3.5-12.7-8.9-16.5-11.9-3.8-3.1-11.1-9.7-16-14.7-5-4.9-11.6-12.1-14.7-16-3.1-3.8-8.1-10.8-11.2-15.5-3.1-4.7-5.6-9.1-5.6-9.7 0-1 5.9-1.3 26.2-1.3 25.9 0 26.4-0.1 31.5-2.5 2.9-1.4 6.5-3.7 7.9-5.2 1.4-1.6 3.5-4.6 4.7-6.8 1.5-2.9 2.1-5.9 2.1-11 0-4.8-0.6-8.1-1.8-10.5-1-1.9-3.2-5-5-6.8-1.7-1.9-4.9-4.3-7.1-5.5-3.9-2.2-4.8-2.2-60.5-2.5-48.2-0.2-57.1-0.1-60.5 1.2-2.2 0.8-5.8 2.8-8 4.4-2.5 1.7-5.1 4.9-6.8 8.2l-2.7 5.5v114c4.3 8.4 7.1 12.1 9 13.7 1.9 1.5 5.5 3.5 8 4.3 2.5 0.8 6.3 1.5 8.5 1.5 2.2 0 5.8-0.6 8-1.2 2.4-0.8 6.1-3.3 9.2-6.3 3.9-3.8 5.5-6.3 6.7-10.5 1.1-3.7 1.6-9.4 1.6-17.7 0-6.8 0.3-12.5 0.7-12.7 0.5-0.3 4.6 4 9.3 9.6 4.7 5.5 12.6 13.9 17.5 18.7 5 4.7 12.4 11.3 16.5 14.7 4.1 3.3 11.8 9 17 12.5 5.2 3.6 14.4 9.2 20.5 12.5 6.1 3.4 14.6 7.7 19 9.7 4.4 1.9 11.6 4.9 16 6.5 4.4 1.6 12.9 4.3 19 6 6.1 1.7 17.7 4.2 26 5.6 8.2 1.3 19.1 2.9 24 3.5 4.9 0.6 13.3 1.1 18.5 1.1 5.2 0 13.3-0.5 18-1.1 4.7-0.5 14.6-1.9 22-3.1 7.4-1.1 17.8-3.1 23-4.4 5.2-1.4 14.9-4.3 21.5-6.5 6.6-2.3 19.6-7.8 29-12.4 9.4-4.6 21.6-11.5 27.2-15.2 5.6-3.7 13.9-9.7 18.4-13.3 4.6-3.6 13.8-11.9 20.5-18.5 6.6-6.6 15.5-16.3 19.6-21.5 4.2-5.2 10.8-14.4 14.7-20.5 4-6 10.3-17.3 14.1-25 3.8-7.7 8.7-18.7 10.8-24.5 2.2-5.8 5.4-15.7 7.2-22 1.8-6.6 3.2-13.9 3.2-17 0-3.3-0.7-7.3-1.9-10-1.1-2.5-3.5-6-5.4-7.9-1.9-1.9-5.2-4.2-7.4-5.2-2.2-0.9-5.8-2-8-2.3-2.2-0.3-6 0-8.5 0.7z"/>
</svg>