<svg version="1.2" xmlns="http://www.w3.org/2000/svg" viewBox="0 0 512 512" width="512" height="512">
    <title>stablecoin</title>
    <style>
        .s0 { fill: #E7E8E9 }
    </style>
    <path id="Path 0" class="s0" d="m309.1 70.7l-0.2 18.8c9.8 3.6 17.5 7.1 23.6 10 6 2.9 14.8 7.9 19.5 11 4.7 3.2 11.9 8.6 16 12 4.1 3.4 10.8 9.8 14.9 14.1 4 4.3 9.7 11.1 12.6 14.9 2.8 3.8 7.3 10.6 10 15 2.7 4.4 6.5 11.6 8.6 16 2 4.4 5.3 12.7 7.2 18.5 1.9 5.8 4.6 15.7 5.9 22 2 10 2.3 14.4 2.3 33 0 18.5-0.4 23.1-2.4 33-1.2 6.3-3.8 16.2-5.8 22-1.9 5.8-5.6 15-8.3 20.5-2.6 5.5-7.6 14.3-11 19.5-3.5 5.2-9.1 12.9-12.5 17-3.4 4.1-9.8 10.8-14.1 14.9-4.3 4-11.1 9.7-14.9 12.6-3.9 2.9-10.2 7.2-14 9.5-3.9 2.4-11.1 6.2-16 8.5-5 2.4-11.8 5.3-15.3 6.6l-6.3 2.4 0.1 37.5c5-1 11-2.8 16.5-4.7 5.5-1.9 15.8-6.3 23-9.8 7.1-3.5 17.7-9.5 23.5-13.3 5.8-3.8 15-10.8 20.4-15.3 5.5-4.6 13.5-12.2 17.8-16.9 4.3-4.7 11.1-12.8 15.1-18.1 3.9-5.3 10-14.6 13.4-20.5 3.5-6 8.6-16.3 11.4-22.9 2.8-6.6 6.6-17.2 8.4-23.5 1.8-6.3 4.3-17.4 5.6-24.5 1.9-10.9 2.3-16.5 2.3-34.5 0-17.4-0.4-23.9-2.2-34-1.1-6.9-3.7-17.9-5.6-24.5-1.9-6.6-5.7-17.4-8.5-24-2.8-6.6-7.9-16.9-11.4-22.9-3.4-5.9-9.6-15.4-13.8-21-4.2-5.5-11.6-14.3-16.5-19.5-4.9-5.2-13.4-13-18.9-17.4-5.5-4.5-14.1-10.7-19-14-5-3.2-14.9-8.7-22-12.2-7.2-3.5-17.5-7.9-23-9.8-5.5-1.9-11.4-3.8-13.2-4.2l-3.1-0.7zm-122.6-13.8c-6 2.1-14.8 5.7-19.5 7.8-4.6 2.2-13 6.6-18.5 9.9-5.5 3.2-14.2 9.1-19.5 13.1-5.2 3.9-13.2 10.7-17.9 15-4.6 4.3-12 12.1-16.3 17.4-4.4 5.2-10.8 13.7-14.3 19-3.4 5.2-8.5 13.7-11.3 19-2.8 5.2-7.1 14.6-9.6 21-2.4 6.3-5.6 15.7-7 21-1.4 5.2-3.5 14.6-4.6 21-1.1 6.3-2.3 18.4-2.6 27-0.4 8.9-0.2 20.4 0.5 27 0.6 6.3 2 16 3.1 21.5 1.1 5.5 3.1 14 4.6 19 1.4 4.9 4.9 14.6 7.7 21.5 2.9 6.9 8.2 17.6 11.7 23.8 3.6 6.3 10.1 16.2 14.5 22 4.4 5.9 13.1 15.9 19.5 22.2 6.3 6.3 16 14.9 21.5 19.1 5.5 4.1 14.3 10 19.5 13.1 5.3 3.1 14 7.7 19.5 10.3 5.5 2.5 14.5 6.1 20 8 5.5 1.9 10.6 3.4 11.3 3.5 0.9 0 1.2-4.5 1.2-19v-19c-8.9-3.3-15.5-6.1-20.5-8.5-4.9-2.4-13.2-7.1-18.5-10.6-5.2-3.4-12.8-9-17-12.4-4.1-3.4-10.8-9.8-14.8-14.1-4.1-4.4-9.7-11.1-12.6-14.9-2.9-3.9-7.3-10.4-9.8-14.5-2.6-4.2-6.5-11.6-8.8-16.5-2.3-5-5.7-13.5-7.5-19-1.8-5.5-4.3-15.2-5.6-21.5-2-10-2.4-14.4-2.4-33 0-18.6 0.4-23.1 2.4-33 1.3-6.4 3.9-16.3 5.8-22 1.9-5.8 5.8-15.5 8.8-21.5 2.9-6.1 7.9-14.9 11.1-19.5 3.1-4.7 8.5-11.9 11.9-16 3.5-4.2 9.6-10.7 13.7-14.5 4-3.9 10.7-9.5 14.8-12.6 4.2-3.1 11.1-7.8 15.5-10.4 4.4-2.7 11.4-6.4 15.5-8.3 4.2-1.9 9.9-4.3 12.8-5.3l5.2-1.9c0-33.6-0.3-38-1.2-38-0.7 0-6.2 1.7-12.3 3.8zm50.5 74.7v17.5c-4.2 0.8-8.4 2-12 3.1-3.5 1-9.4 3.6-13 5.6-3.5 2.1-10.1 7.4-14.5 11.8-6.1 6-9 9.9-11.8 15.5-2 4.1-4.3 10.2-5.2 13.5-0.8 3.3-1.5 9.5-1.5 13.7 0 4.6 0.8 10.1 1.8 13.5 1 3.2 3 7.8 4.4 10.3 1.4 2.4 5.6 7.3 9.2 10.7 4.9 4.6 9.4 7.6 16.9 11.2 5.6 2.8 13.6 5.9 17.7 7 4.2 1.2 13.8 3.2 21.5 4.6 7.7 1.4 17 3.5 20.5 4.6 3.6 1.1 8.1 3 10 4.1 2 1.2 5 3.5 6.9 5.2 1.8 1.7 4.2 4.8 5.2 6.8 1.3 2.6 1.9 5.8 1.9 10.5 0 5-0.6 8.1-2.4 11.8-1.3 2.7-3.8 6.5-5.7 8.3-1.8 1.9-5.1 4.3-7.1 5.3-2.1 1-6.4 2.5-9.5 3.4-3.2 0.8-10 1.5-15.3 1.5-6.5 0-11.5-0.6-16-1.9-3.9-1.2-8.5-3.6-11.7-6.1-2.9-2.2-6.4-5.9-7.7-8.3-1.3-2.3-2.9-6-3.4-8.2-0.6-2.2-1.3-5.7-1.6-7.8l-0.6-3.7h-39c0.9 10.4 1.9 16.2 2.7 19.5 0.8 3.3 3.2 9.1 5.2 12.9 2.3 4.4 5.9 9 9.9 12.7 3.4 3.2 9.3 7.4 13 9.3 3.7 1.8 9.9 4.3 13.7 5.5 3.9 1.2 9.3 2.5 12 2.9l5 0.7 0.5 35.5h36v-34.5c14.4-3.5 22.4-6.4 27-8.7 6.4-3.1 10.3-5.9 15.6-11.2 5.1-5.1 8.2-9.4 11.1-15.1 2.2-4.4 4.8-11.6 5.8-16 1.2-5.5 1.7-10.7 1.4-16.5-0.4-7.2-1-9.7-4-16-2-4.2-5.8-10-8.5-12.9-2.7-3-7.6-7.4-10.9-9.7-3.3-2.4-9.3-5.9-13.5-7.8-4.1-1.9-11.3-4.6-16-6-4.6-1.3-13.9-3.2-20.5-4.1-6.6-0.9-14.8-2.3-18.2-3.1-3.5-0.8-8.4-2.5-11-3.8-2.6-1.3-6.1-3.7-7.7-5.3-1.5-1.5-3.5-4.3-4.2-6.1-0.8-1.8-1.4-6-1.4-9.5 0-5.3 0.5-7.1 3.3-11.7 2.1-3.6 5-6.7 8.2-8.8 2.8-1.9 7.3-4 10-4.8 2.8-0.8 7.8-1.4 11.3-1.4 3.4 0 8.6 0.5 11.5 1.1 2.9 0.6 7.5 2.1 10.2 3.4 3 1.4 7 4.5 9.8 7.6 2.7 3 5.5 7.4 6.3 9.9 0.8 2.4 1.5 5.7 1.4 7.2 0 1.5 0.3 3.4 0.5 4.3 0.5 1.2 3.4 1.5 18.5 1.5h18c-0.9-10.5-1.8-16-2.6-19-0.8-3.1-3.1-8.9-5.1-13-2.6-5.2-6-9.8-10.8-14.6-4.1-4.3-9.8-8.7-14-11-3.8-2.1-10.1-4.8-14-6l-7-2.2-0.4-36.2h-36.1z"/>
</svg>