<svg version="1.2" xmlns="http://www.w3.org/2000/svg" viewBox="0 0 512 512" width="512" height="512">
	<title>vault</title>
	<style>
		.s0 { fill: #E7E8E9 }
	</style>
	<path id="Path 0" fill-rule="evenodd" class="s0" d="m102.5 32.1l322-0.1 6.5 2.5c3.6 1.4 8.3 3.6 10.5 4.9 2.2 1.3 6.3 4.8 9.1 7.7 2.8 3 6.3 7.8 7.7 10.6 1.5 2.9 3.4 7.9 4.2 11 1.3 5 1.5 25.3 1.5 154.3 0 96.3-0.3 150.4-1 154-0.6 3-2.4 8.4-4.2 12-1.9 4-5.5 8.8-9.2 12.6-3.6 3.6-8.4 7.1-17.6 11.4l-0.5 43.5-3.5 6.4c-1.9 3.5-4.9 7.5-6.5 8.9-1.6 1.3-5.6 3.7-14.5 8.2h-46l-7.2-3.8c-3.9-2-8.4-5.3-10-7.2-1.5-1.9-3.8-5.5-5-8-2.1-4.1-2.3-6.2-2.8-45h-144l-0.5 40.5-3.5 6.4c-1.9 3.5-4.8 7.5-6.5 8.9-1.7 1.3-5.6 3.7-14.5 8.2h-46l-7.2-3.8c-3.9-2-8.4-5.3-10-7.2-1.5-1.9-3.8-5.5-5-8-2.1-4.2-2.3-6.1-2.8-48l-5.7-2.7c-3.5-1.6-8.3-5.1-11.9-8.7-3.4-3.4-7.3-8.5-8.8-11.4-1.4-2.8-3.3-7.8-4.1-11-0.9-3.4-1.5-10.1-1.5-27.2l-3.7-0.6c-2.7-0.4-5-1.8-8-5-4.1-4.2-4.3-4.7-4.3-10.4 0-5.7 0.2-6.2 4.3-10.4 3-3.2 5.3-4.6 11.7-5.6v-192l-3.7-0.6c-2.7-0.4-5-1.8-8-5-4.1-4.2-4.3-4.7-4.3-10.4 0-5.7 0.2-6.2 4.3-10.4 3-3.2 5.3-4.6 11.7-5.6v-10.8c0-6.3 0.6-13 1.5-16.5 0.8-3.1 2.7-8.1 4.2-11 1.4-2.8 4.9-7.6 7.7-10.5 2.8-3 6.7-6.3 8.6-7.5 1.9-1.2 6.4-3.4 10-4.9zm-2.6 37c-1 1.3-2.2 3.6-2.8 5.2-0.6 1.5-1.1 7-1.1 12.2v9.5c20.3 0.5 22.3 0.8 24.7 2.6 1.5 1.2 3.7 3.4 4.8 4.8 1.5 2 2 4.3 2 8.6 0 4.3-0.5 6.6-2 8.6-1.1 1.4-3.3 3.6-4.8 4.8-2.4 1.8-4.4 2.1-13.8 2.4l-10.9 0.2v192c20 0.5 22.3 0.8 24.6 2.5 1.4 1.1 3.6 3.3 4.8 4.8 1.6 2.2 2.1 4.3 2.1 8.7 0 4.3-0.5 6.6-2 8.6-1.1 1.4-3.3 3.6-4.8 4.8-2.4 1.8-4.4 2.1-13.8 2.4l-10.9 0.2c0.5 20.3 0.8 22.3 2.6 24.7 1.2 1.5 3.4 3.7 4.8 4.8 2.7 2 4.3 2 160.6 2 156.3 0 157.9 0 160.6-2 1.4-1.1 3.6-3.3 4.8-4.8l2.1-2.8v-299.7c-3.3-4.4-5.5-6.6-6.9-7.7-2.7-2-4.5-2-159.4-2.2-124.3-0.2-157.4 0-160.2 1-1.9 0.7-4.2 2.4-5.1 3.8zm28.1 378.9h32v-32h-32zm240 0h32v-32h-32zm-97-351.8c5.2-0.1 14.2 0.5 20 1.4 5.8 0.8 15 3 20.5 4.8 5.5 1.9 13.4 5.1 17.5 7.1 4.1 2.1 10.9 6 15 8.8 4.1 2.8 12.3 9.8 18.1 15.6 5.8 5.8 12.8 14 15.6 18.1 2.8 4.1 6.7 10.9 8.8 15 2.1 4.1 5.2 12 7.1 17.5 1.8 5.5 4 14.7 4.8 20.5 0.9 5.8 1.6 14.3 1.6 19 0 4.7-0.7 13.2-1.6 19-0.8 5.8-3 15-4.8 20.5-1.9 5.5-5 13.4-7.1 17.5-2.1 4.1-6 10.9-8.8 15-2.8 4.1-9.8 12.3-15.6 18.1-5.8 5.8-14 12.9-18.1 15.6-4.1 2.8-10.9 6.7-15 8.8-4.1 2.1-12 5.2-17.5 7.1-5.5 1.8-14.7 4-20.5 4.8-5.8 0.9-14.3 1.6-19 1.6-4.7 0-13.2-0.7-19-1.6-5.8-0.8-15-3-20.5-4.8-5.5-1.9-13.4-5-17.5-7.1-4.1-2.1-10.9-6-15-8.8-4.1-2.7-12.3-9.8-18.1-15.6-5.8-5.8-12.8-14-15.6-18.1-2.8-4.1-6.7-10.9-8.8-15-2.1-4.1-5.2-12-7.1-17.5-1.8-5.5-4-15.2-5-21.5-1.2-8.5-1.5-14.7-1-24 0.3-6.9 1.5-16.3 2.5-21 1.1-4.7 3.2-11.9 4.6-16 1.5-4.1 4.3-10.6 6.3-14.5 1.9-3.8 5.7-10.4 8.5-14.5 2.8-4.1 9.8-12.3 15.6-18.1 5.8-5.8 14-12.8 18.1-15.6 4.1-2.8 10.7-6.6 14.5-8.5 3.9-2 10.8-4.9 15.5-6.6 4.7-1.6 12.1-3.7 16.5-4.5 4.4-0.9 9.6-1.8 11.5-2 1.9-0.2 7.8-0.4 13-0.5zm-41.5 42.2c-4.9 2.5-9.9 5.2-11 6.1-1.9 1.5-1.8 1.7 4.1 7.8 3.4 3.4 6.7 7.2 7.3 8.5 0.6 1.2 1.1 4.3 1.1 7 0 2.9-0.7 5.9-2 8-1.1 1.7-3.5 4.1-5.2 5.2-2.1 1.3-5.1 2-8 2-2.7 0-5.8-0.5-7-1.1-1.3-0.6-5.1-3.9-8.6-7.3-6.1-5.9-6.4-6-7.9-4.1-0.8 1.1-3.7 6.5-6.4 12-2.6 5.5-5.5 12.7-6.3 16-0.9 3.3-1.6 6.8-1.6 7.8 0 1.5 1.2 1.7 9.9 2 8.1 0.2 10.5 0.6 12.7 2.2 1.4 1.1 3.6 3.3 4.8 4.8 1.6 2.2 2.1 4.3 2.1 8.7 0 4.4-0.5 6.6-2.1 8.7-1.2 1.5-3.4 3.7-4.8 4.8-2.2 1.6-4.6 2.1-12.7 2.3-8.7 0.2-9.9 0.4-9.9 2 0 0.9 0.7 4.4 1.6 7.7 0.8 3.3 3.7 10.5 6.4 16 2.7 5.5 5.5 10.9 6.4 12 1.4 1.9 1.7 1.8 7.8-4.1 3.5-3.4 7.3-6.7 8.6-7.3 1.2-0.6 4.3-1.1 7-1.1 2.9 0 5.9 0.8 8 2 1.7 1.1 4.1 3.5 5.2 5.3 1.3 2 2 5 2 8 0 2.6-0.5 5.7-1.1 7-0.6 1.2-3.9 5-7.3 8.4-5.9 6.1-6 6.3-4.1 7.8 1.1 0.8 6.1 3.6 11 6 5 2.5 12.2 5.4 16 6.5 3.9 1.1 7.8 2 8.8 2 1.5 0 1.7-1.2 2-9.9 0.2-8.1 0.6-10.4 2.2-12.7 1.1-1.4 3.3-3.6 4.8-4.8 2.2-1.6 4.3-2.1 8.7-2.1 4.3 0 6.6 0.5 8.6 2 1.4 1.1 3.6 3.3 4.8 4.8 1.8 2.4 2.1 4.5 2.4 12.8 0.2 8.7 0.4 9.9 2 9.9 0.9 0 4.4-0.7 7.7-1.6 3.3-0.8 10.5-3.7 16-6.4 5.5-2.7 10.9-5.5 12-6.4 1.9-1.4 1.8-1.7-4.1-7.8-3.4-3.5-6.7-7.3-7.3-8.5-0.6-1.3-1.1-4.4-1.1-7 0-3 0.7-6 2-8 1.1-1.8 3.5-4.2 5.3-5.3 2-1.2 5-2 8-2 2.6 0 5.7 0.5 7 1.1 1.2 0.6 5 3.9 8.5 7.3 6.1 5.9 6.4 6 7.8 4.1 0.9-1.1 3.7-6.5 6.4-12 2.7-5.5 5.6-12.7 6.4-16 0.9-3.3 1.6-6.8 1.6-7.7 0-1.6-1.2-1.8-9.9-2-8.4-0.3-10.4-0.6-12.8-2.4-1.5-1.2-3.7-3.4-4.8-4.8-1.5-2-2-4.3-2-8.6 0-4.4 0.5-6.5 2.1-8.7 1.2-1.5 3.4-3.7 4.8-4.8 2.2-1.6 4.6-2 12.7-2.2 8.7-0.3 9.9-0.5 9.9-2 0-1-0.7-4.5-1.6-7.8-0.8-3.3-3.7-10.5-6.4-16-2.7-5.5-5.5-10.9-6.4-12-1.4-1.9-1.7-1.8-7.8 4.1-3.5 3.4-7.3 6.7-8.5 7.3-1.3 0.6-4.4 1.1-7 1.1-3 0-6-0.7-8-2-1.8-1.1-4.2-3.5-5.3-5.2-1.3-2.1-2-5.1-2-8 0-2.7 0.5-5.8 1.1-7 0.6-1.3 3.9-5.1 7.3-8.6 5.9-6.1 6-6.4 4.1-7.8-1.1-0.9-6.5-3.7-12-6.4-5.5-2.7-12.7-5.6-16-6.4-3.3-0.9-6.8-1.6-7.7-1.6-1.6 0-1.8 1.2-2 9.9-0.3 8.4-0.6 10.4-2.4 12.8-1.2 1.5-3.4 3.7-4.8 4.8-2 1.5-4.3 2-8.6 2-4.3 0-6.6-0.5-8.6-2-1.4-1.1-3.6-3.3-4.8-4.8-1.8-2.4-2.1-4.5-2.4-12.8-0.2-9.5-0.3-9.9-2.5-9.8-1.2 0-5.1 0.9-8.7 2-3.6 1-10.5 3.9-15.5 6.3zm42 37.7c3.3-0.1 8.7 0.6 12 1.5 3.3 0.8 8.6 3 11.9 4.7 3.2 1.8 8.2 5.7 11.1 8.7 2.8 3 6.4 7.9 7.8 10.8 1.5 2.8 3.4 7.8 4.2 11 0.8 3.1 1.5 8.2 1.5 11.2 0 3-0.7 8.1-1.5 11.3-0.8 3.1-2.7 8.1-4.2 11-1.4 2.8-5 7.7-7.8 10.7-2.9 3-7.9 6.9-11.1 8.7-3.3 1.7-8.6 3.9-11.9 4.7-3.3 0.9-8.5 1.6-11.5 1.6-3 0-8.1-0.7-11.2-1.5-3.2-0.8-8.2-2.7-11-4.1-2.9-1.5-7.8-5.1-10.8-7.9-3-2.9-6.9-7.9-8.7-11.1-1.7-3.3-3.9-8.6-4.7-11.9-0.9-3.3-1.6-8.5-1.6-11.5 0-3 0.7-8.1 1.5-11.2 0.8-3.2 2.7-8.2 4.2-11 1.4-2.9 5-7.8 7.8-10.8 2.9-3 7.9-6.9 11.1-8.7 3.3-1.7 8.4-3.9 11.4-4.7 3-0.8 8.2-1.5 11.5-1.5zm-12.2 37.8c-1.2 1.7-2.6 4.6-2.9 6.4-0.3 1.7-0.3 5 0.1 7.2q0.7 4 4.4 7.6c2.1 2.2 5.1 4 7.1 4.4 1.9 0.4 5.3 0.4 7.5 0q4-0.7 7.6-4.4c2.1-2.1 4-5.1 4.4-7.1 0.4-1.9 0.4-5.2 0.1-7.2-0.3-2.1-1.8-5.2-3.3-7-1.6-1.7-4.3-3.7-6-4.5-1.8-0.7-4.8-1.3-6.5-1.3-1.8 0.1-4.8 0.7-6.7 1.4-1.9 0.7-4.5 2.7-5.8 4.5z"/>
</svg>